<?xml version="1.0" encoding="UTF-8"?>
<svg id="Layer_1" data-name="Layer 1" xmlns="http://www.w3.org/2000/svg" viewBox="0 0 1080 349.48">
  <defs>
    <style>
      .cls-1, .cls-2, .cls-3, .cls-4, .cls-5 {
        stroke-width: 0px;
      }

      .cls-1, .cls-4 {
        fill-rule: evenodd;
      }

      .cls-1, .cls-5 {
        fill: #f5f1e5;
      }

      .cls-2 {
        fill: none;
      }

      .cls-3, .cls-4 {
        fill: #c39c67;
      }
    </style>
  </defs>
  <path class="cls-3" d="M285.44,213.15l58.2,58.2h-116.4l58.2-58.2Z"/>
  <path class="cls-4" d="M285.58,105.77c-38.12,0-68.97,31.14-68.97,68.97,0,18.68,7.41,35.62,19.45,48.03l-19.6,19.77c-17.19-17.41-27.79-41.32-27.79-67.8,0-53.55,43.36-96.61,96.9-96.61s96.61,43.07,96.61,96.61c0,26.6-10.7,50.62-28,68.05l-19.6-19.77c12.15-12.44,19.66-29.47,19.66-48.28,0-37.83-30.85-68.97-68.68-68.97ZM285.43,130.17c-8.51,0-16.83,2.52-23.91,7.25-7.08,4.73-12.59,11.45-15.85,19.31-3.26,7.86-4.11,16.52-2.45,24.86,1.66,8.35,5.76,16.01,11.78,22.03l18.09-18.09c-2.44-2.44-4.1-5.55-4.77-8.93-.67-3.38-.33-6.89.99-10.08,1.32-3.19,3.56-5.91,6.43-7.83,2.87-1.92,6.24-2.94,9.69-2.94s6.82,1.02,9.69,2.94c2.87,1.92,5.11,4.64,6.43,7.83,1.32,3.19,1.67,6.69.99,10.08-.67,3.38-2.33,6.49-4.77,8.93l18.09,18.09c6.02-6.02,10.12-13.68,11.78-22.03,1.66-8.35.81-17-2.45-24.86-3.26-7.86-8.77-14.58-15.85-19.31-7.08-4.73-15.4-7.25-23.91-7.25Z"/>
  <path class="cls-2" d="M285.58,105.77c-38.12,0-68.97,31.14-68.97,68.97,0,18.68,7.41,35.62,19.45,48.03l-19.6,19.77c-17.19-17.41-27.79-41.32-27.79-67.8,0-53.55,43.36-96.61,96.9-96.61s96.61,43.07,96.61,96.61c0,26.6-10.7,50.62-28,68.05l-19.6-19.77c12.15-12.44,19.66-29.47,19.66-48.28,0-37.83-30.85-68.97-68.68-68.97ZM285.43,130.17c-8.51,0-16.83,2.52-23.91,7.25-7.08,4.73-12.59,11.45-15.85,19.31-3.26,7.86-4.11,16.52-2.45,24.86,1.66,8.35,5.76,16.01,11.78,22.03l18.09-18.09c-2.44-2.44-4.1-5.55-4.77-8.93-.67-3.38-.33-6.89.99-10.08,1.32-3.19,3.56-5.91,6.43-7.83,2.87-1.92,6.24-2.94,9.69-2.94s6.82,1.02,9.69,2.94c2.87,1.92,5.11,4.64,6.43,7.83,1.32,3.19,1.67,6.69.99,10.08-.67,3.38-2.33,6.49-4.77,8.93l18.09,18.09c6.02-6.02,10.12-13.68,11.78-22.03,1.66-8.35.81-17-2.45-24.86-3.26-7.86-8.77-14.58-15.85-19.31-7.08-4.73-15.4-7.25-23.91-7.25Z"/>
  <path class="cls-1" d="M285.58,105.77c-38.12,0-68.97,31.14-68.97,68.97,0,18.68,7.41,35.62,19.45,48.03l-19.6,19.77c-17.19-17.41-27.79-41.32-27.79-67.8,0-53.55,43.36-96.61,96.9-96.61s96.61,43.07,96.61,96.61c0,26.6-10.7,50.62-28,68.05l-19.6-19.77c12.15-12.44,19.66-29.47,19.66-48.28,0-37.83-30.85-68.97-68.68-68.97ZM285.43,130.17c-8.51,0-16.83,2.52-23.91,7.25-7.08,4.73-12.59,11.45-15.85,19.31-3.26,7.86-4.11,16.52-2.45,24.86,1.66,8.35,5.76,16.01,11.78,22.03l18.09-18.09c-2.44-2.44-4.1-5.55-4.77-8.93-.67-3.38-.33-6.89.99-10.08,1.32-3.19,3.56-5.91,6.43-7.83,2.87-1.92,6.24-2.94,9.69-2.94s6.82,1.02,9.69,2.94c2.87,1.92,5.11,4.64,6.43,7.83,1.32,3.19,1.67,6.69.99,10.08-.67,3.38-2.33,6.49-4.77,8.93l18.09,18.09c6.02-6.02,10.12-13.68,11.78-22.03,1.66-8.35.81-17-2.45-24.86-3.26-7.86-8.77-14.58-15.85-19.31-7.08-4.73-15.4-7.25-23.91-7.25Z"/>
  <path class="cls-5" d="M971.47,247.78c3.49-2.91,6.7-6.11,9.6-9.6,14.85-17.17,23.58-38.99,23.58-63.44,0-53.25-43.07-96.61-96.62-96.61s-96.61,43.36-96.61,96.61,43.35,96.61,96.61,96.61h86.72l-23.28-23.57ZM951.68,227.99c-3.78,3.2-7.85,5.82-11.93,7.86-4.66,2.33-9.31,4.37-14.26,5.53-5.53,1.45-11.35,2.33-17.46,2.33-37.83,0-68.68-30.85-68.68-68.97s30.85-68.68,68.68-68.68,68.97,30.85,68.97,68.68c0,16.59-5.82,31.72-15.72,43.65-2.91,3.49-6.12,6.69-9.61,9.6ZM101.54,78.71v191.77h-26.19V78.71h26.19ZM724.58,78.71v191.77h-26.19V78.71h26.19ZM509.69,271.35h27.94V106.06h73.92v-27.94h-172.57v27.94h70.71v165.29Z"/>
</svg>